<svg id="Layer_1" data-name="Layer 1" xmlns="http://www.w3.org/2000/svg" viewBox="0 0 2000 500"><defs><style>.cls-1,.cls-2{fill:#f7941d;}.cls-1{fill-rule:evenodd;}</style></defs><path class="cls-1" d="M268.94,100.12c60.47,21.7,103.31,75.7,103.31,138.9,0,82.33-72.7,149.07-162.39,149.07a173.6,173.6,0,0,1-73.75-16.23l32-65.49q7.29-13.31,14.4-25.29,7-11.7,14.5-22.92t14.5-20.11a92.3,92.3,0,0,1,13.56-14.26q6.54-5.39,11.69-5.38,5.61,0,5.85,5.14t-3,14A220.51,220.51,0,0,1,230,259.1q-6.31,12.61-13.8,27.12Q211,296,205.67,306.8t-9.59,21a96,96,0,0,0-5.84,19.64q-1.63,9.36.7,16.37t9.82,11.22q7.49,4.21,22,4.21A65.64,65.64,0,0,0,245,375.54a83.24,83.24,0,0,0,19.65-10.05c27-18.7,55.51-62.52,68-93.25-12.21,20-57.16,86.93-76.22,86.93q-8.42,0-1.17-16.13T284,287.62q27.13-48.63,21.05-71.78T266.7,192.69a59.12,59.12,0,0,0-28.76,7,93.12,93.12,0,0,0-23.38,18.24q-3.85,4.11-7.43,8.63l61.81-126.45ZM85.63,335c-23.81-25.94-38.16-59.42-38.16-96,0-81,70.36-146.89,158-149L85.63,335Z"/><path class="cls-2" d="M1724.1,180.81a20.42,20.42,0,0,1-11.77,10.35,18.93,18.93,0,0,1-14.89-.71q-7.65-4-9.78-11.06t2.12-14.47a19,19,0,0,1,11.77-9.64,20.28,20.28,0,0,1,14.9,1.14,18.55,18.55,0,0,1,9.21,10.91,16.52,16.52,0,0,1-1.56,13.48Z"/><path class="cls-2" d="M1837.65,402.55a53.66,53.66,0,0,1-16,6.38,48.55,48.55,0,0,1-17.33.54,52.12,52.12,0,0,1-18-6.38,35.69,35.69,0,0,1-11.67-10,29.28,29.28,0,0,1-5.1-11.12,17,17,0,0,1,.54-9.66,9.65,9.65,0,0,1,4.93-5.66q6.93-2.55,12.76,5.29t4.74,22.43a28.64,28.64,0,0,0,10.21,2.55,22.91,22.91,0,0,0,11.13-2.19,35.69,35.69,0,0,0,11.3-8.75q5.65-6.19,11.12-17.14l32.1-58.71h-1.46q-15.32,16.77-30.82,25t-27.17,7.84a27.87,27.87,0,0,1-15.13-4,23.15,23.15,0,0,1-9.3-11.13,30.66,30.66,0,0,1-2.12-11.36,146.22,146.22,0,0,1-14.66,16.11,94,94,0,0,1-21.51,15.31,54,54,0,0,1-25.17,6,22.84,22.84,0,0,1-17.5-7.47q-6.79-7.33-4.47-22.56-4.53,5.3-9.39,10a83.07,83.07,0,0,1-20.42,14.59,53.82,53.82,0,0,1-24.43,5.47q-9.85,0-17.51-7.47t-5.47-23.16c.09-.76.21-1.53.34-2.31q-6.35,6.7-13.29,12.88a199.09,199.09,0,0,1-23.15,17.87q-11.67,7.66-21.52,9.85a64.59,64.59,0,0,1-28.44,3.1q-14.6-1.65-24.07-8.21a40.2,40.2,0,0,1-10.76-11.3,25.2,25.2,0,0,1-3.83-10.94,14.53,14.53,0,0,1,2-8.94,10.6,10.6,0,0,1,6.38-4.92,9.21,9.21,0,0,1,7.66,1.09,14.22,14.22,0,0,1,5.1,6.57,29.1,29.1,0,0,1,2,10.39,64.67,64.67,0,0,1-.92,12.58q13.86,4,24.26-3.64t12.58-21.52a35.64,35.64,0,0,0-1.83-18.23,167.12,167.12,0,0,0-7.65-17.33q-4.38-8.57-8.21-16.59c-5.48-11.48.7-30.58.55-30.63-9.48,17.76-20.1,38.23-31.92,53.54-13.09,18.32-28.93,45.15-45.4,54.75a67.55,67.55,0,0,1-13.31,6,48,48,0,0,1-13.67,2.37,24.6,24.6,0,0,1-12.4-2.73q-9.12-4-12.76-11.31a30.88,30.88,0,0,1-2.92-16.59,70.83,70.83,0,0,1,4.92-20.06,130.12,130.12,0,0,1,10.76-21.33q5.1-8.76,10-16.6t8.75-14.58a79.73,79.73,0,0,0,5.84-12.4q2-5.66,1.27-9.67-1.1-6.56-8.2-7.84a41.64,41.64,0,0,0-15.87.55q-2.19,6.57-6.74,17t-10,21.33q-5.47,10.95-10.94,21a169,169,0,0,1-9.85,16.23l-.23-.13a125.88,125.88,0,0,1-15.45,18.73,134,134,0,0,1-55.07,33.37,105.4,105.4,0,0,1-31.73,4.92q-19.32,0-31.9-7.11t-18.06-19a46.68,46.68,0,0,1-4.09-19.25,71.85,71.85,0,0,1-22.16,16.16q-20.79,9.48-41.58,5.83a129.88,129.88,0,0,1-27.9,17.51,69.4,69.4,0,0,1-29,6.56q-12,0-20.24-4.74a29.5,29.5,0,0,1-12.22-13.31q-3.74-8-3-18.83A161.74,161.74,0,0,1,1060.7,338a96,96,0,0,1-21,15.69,49.35,49.35,0,0,1-24.07,6.2,24.29,24.29,0,0,1-16.78-6.2q-6.93-6.21-6.56-17.87l4.74-10.94H996l-3.29,4.74q-10.93,15.67-22.24,22.79a45.7,45.7,0,0,1-24.8,7.11q-12.76,0-21.15-7.29t-10.76-19.88a52.55,52.55,0,0,1-.72-13l-.56.74A144.12,144.12,0,0,1,894,340.54a89.11,89.11,0,0,1-20.43,14,51,51,0,0,1-22.79,5.29,22.77,22.77,0,0,1-16.23-6.39q-6.74-6.37-6.74-17.68l5.47-12.4h-1.1l-4,5.83a85.53,85.53,0,0,1-21.15,22.06,43.93,43.93,0,0,1-25.89,8.21q-12.76,0-21-7.48T750,331.78a59,59,0,0,1-.34-14.6q-1.87,2.06-3.86,4a133.87,133.87,0,0,1-55.06,33.37A105.45,105.45,0,0,1,659,359.5q-19.34,0-31.91-7.11t-18.05-19a42.33,42.33,0,0,1-2.87-8.48,143.59,143.59,0,0,1-9.93,11.44,78.91,78.91,0,0,1-12.68,10.9,63.61,63.61,0,0,1-14.93,7.64c-5.41,1.93-14,2.56-19.76,2.56-5.14,0-11.76-.49-16.34-3.06a14.17,14.17,0,0,1-6.9-7.84,24.58,24.58,0,0,1-.48-12,72.41,72.41,0,0,1,4.46-15c2.26-5.53,4.75-11,7.42-16.3s5.43-10.7,8.19-16q5.47-10.53,10.77-21.17a167.42,167.42,0,0,0,7.55-16.94c1.27-3.45,2.64-7.88,2.47-11.59s-2.58-5.59-6.2-5.59-7.37,2.27-10.17,4.57A73.3,73.3,0,0,0,538.82,248c-4,5.09-7.79,10.39-11.39,15.79-3.92,5.89-7.73,11.86-11.35,17.94l-.22.38-31.52,64.62-49.28,6.86L547.33,124.09l48.92-6.85L531.13,250.77a109.15,109.15,0,0,1,12.56-16.32,70.91,70.91,0,0,1,17.82-13.9,44.51,44.51,0,0,1,21.63-5.27c12.62,0,24.78,3.38,28.31,16.82,4.16,15.84-8.86,41.39-16.26,54.76-4.78,8.65-9.5,17.36-14.05,26.14-2.92,5.66-5.83,11.39-8.44,17.2-1.48,3.3-4.55,10.45-1.32,13.58a5.18,5.18,0,0,0,3.74,1.33c5.93,0,11.8-4.92,15.76-8.88a174.57,174.57,0,0,0,14.41-16.44,60,60,0,0,1,.1-13.9q1.83-15.67,11.31-33.18a120.89,120.89,0,0,1,22.06-29.18A114.72,114.72,0,0,1,665,224.39a97.91,97.91,0,0,1,27.35-9.67,84.27,84.27,0,0,1,25.71-1.09q10.21,1.1,16.59,6A29.1,29.1,0,0,1,744,231.5a32.47,32.47,0,0,1,2.19,15.5,47.76,47.76,0,0,1-5.11,17.32,83.21,83.21,0,0,1-16.77,23.15,99.36,99.36,0,0,1-23.89,17.33,120.13,120.13,0,0,1-60,13.13q-1.46,14.22,5.1,22.24t19.7,8a86.79,86.79,0,0,0,21.88-3.28,110.47,110.47,0,0,0,25-10.21,120.44,120.44,0,0,0,24.25-17.87,110.17,110.17,0,0,0,19-23.89,132.21,132.21,0,0,1,13.78-26.07q12.4-18.24,26.08-30.09a104.18,104.18,0,0,1,27.53-17.68,62.84,62.84,0,0,1,27.17-5.29,57.44,57.44,0,0,1,25,6.75,38.9,38.9,0,0,0,20.6,4.74,61,61,0,0,0,22.43-5.11l-43.39,85.34q-17.14,34.64-4.38,34.64,8.39,0,21.88-11.3,12.15-10.19,26.09-33.1a136.55,136.55,0,0,1,14-27.44,175.42,175.42,0,0,1,25.52-30.45q13.5-12.58,27.72-18.6a67.83,67.83,0,0,1,28.44-5.65,56.37,56.37,0,0,1,27.35,8l33-68.77q8.38.74,21.52-1.28a95.61,95.61,0,0,0,23.34-6.38q-2.91,5.47-9.85,19.33c-4.62,9.24-5.73,11.7-11.81,23.73s-12.46,24.68-19.15,37.93-12.94,25.59-18.78,37-10.76,21.28-14.77,29.54-6.5,13.25-7.48,15q-8,15.67-8.38,24.06t5.83,8.39q8,0,21-11.12,11.46-9.85,25.65-32.42l.43-.95,37.19-75.12a78,78,0,0,0,19.33-1.1,97.24,97.24,0,0,0,20.79-5.83L1112.66,307a119.28,119.28,0,0,0-7.65,18.23,43.31,43.31,0,0,0-2.19,11.85q0,4.56,2,6.93a10.87,10.87,0,0,0,5.29,3.1c4,1.27,14.93.24,21.13-3.65s12.64-9.66,19.33-17.32a190.75,190.75,0,0,0,35.19-61.81,216.63,216.63,0,0,0,6.75-24.43,115.37,115.37,0,0,0,2.73-24.07c7.78-2.44,8.23-3,13.34-1.65a17.26,17.26,0,0,1,11.3,8.76q3.64,6.73,3.1,17.68t-5.65,24.44a159.51,159.51,0,0,1-16,31.36,177.74,177.74,0,0,1-23.34,28.81q15,2.92,30.82-6.2,13.93-8,23.8-23.91a104.15,104.15,0,0,1,9.2-22.4,121.15,121.15,0,0,1,22.06-29.18,114.72,114.72,0,0,1,26.26-19.14,98.13,98.13,0,0,1,27.35-9.67,84.29,84.29,0,0,1,25.71-1.09q10.21,1.1,16.6,6a29.27,29.27,0,0,1,9.3,11.86,32.35,32.35,0,0,1,2.18,15.5,47.54,47.54,0,0,1-5.1,17.32,83.45,83.45,0,0,1-16.78,23.15,99.3,99.3,0,0,1-23.88,17.33,120.13,120.13,0,0,1-60,13.13q-1.47,14.22,5.1,22.24t19.69,8a86.86,86.86,0,0,0,21.89-3.28,110.65,110.65,0,0,0,25-10.21,120.72,120.72,0,0,0,24.25-17.87,111.32,111.32,0,0,0,20.42-26.26l.2.12q3.6-6.68,6.73-12.33,4.74-8.58,8.75-16.41t7.66-16q3.64-8.21,7.29-18.42a8.83,8.83,0,0,1-5.1-4.92,20.07,20.07,0,0,1-1.46-7.84h18.23q54-10.58,59.81,20.42a34.78,34.78,0,0,1-.18,12.77,65.58,65.58,0,0,1-4.38,13.67,159.86,159.86,0,0,1-7.29,14.59q-4.2,7.47-8.57,15.5-11.31,20.79-16.41,33.19t.73,14.95c16.62,9.49,34.63-26.41,41.15-35.33q4.05-5.55,9.14-12.62c10.21-14.77,20.41-31,29.21-46.68a112.49,112.49,0,0,1,12-17.68,65.39,65.39,0,0,1,14.77-13.13,64.29,64.29,0,0,1,18.6-8,95.54,95.54,0,0,1,24.25-2.74,32.12,32.12,0,0,1,13.31,2.55,26,26,0,0,1,8.76,6,12.72,12.72,0,0,1,3.46,7.29,7.59,7.59,0,0,1-2.19,6.39,8.75,8.75,0,0,1-6.38,2.37,15.49,15.49,0,0,1-7.11-2.37,29.46,29.46,0,0,1-6.75-5.66,24.56,24.56,0,0,1-4.56-7.11,27.42,27.42,0,0,0-17.5,7.11,26.1,26.1,0,0,0-8.75,17.69,41.64,41.64,0,0,0,3.82,22.25q4.93,10.2,10.4,20.6a106.26,106.26,0,0,1,8.57,21.88q3.11,11.49-1.28,26.08a15.19,15.19,0,0,1-4.37,7.11c-2.19,2.07-3.89,3.58-5.11,4.56l.73,1.82a119.49,119.49,0,0,0,16.23-11.67,180.72,180.72,0,0,0,15.68-14.95q7.47-8,13.67-16.05,3.27-4.22,5.81-8.12c4.16-8.32,8.48-17.19,13.16-26.52l27.77-55.41c6.07.48,9.88,2.34,18.18,4,7.72,1.53,14.83-3.16,21.15-5.84l-45.58,91.9q-16.42,34.65-2.92,34.65,8.38,0,21.15-11.31,12.09-10.71,26.8-35.5,5.36-10.68,11.13-22.48l28.08-57.26-33.56.13,16-14.25,24.52-.1,19-38.66a87.86,87.86,0,0,0,21.15-1.27,95.22,95.22,0,0,0,20.79-5.65l-22.61,45.58h29.17l-7.66,14.22h-28.44l-44.86,91.9q-8.38,17.5-9.66,26.08t5.29,8.57q8,0,21.88-11.49,12.24-10.15,25.63-32.13c.32-.65.65-1.31,1-2l36.47-74a85.51,85.51,0,0,0,20.24-1.09,103.51,103.51,0,0,0,21.7-5.84l-40.48,82.06q-8,17.13-8,24.79t7.3,8.39q3.64.36,9.29-2.19a62.26,62.26,0,0,0,12.59-8A113.08,113.08,0,0,0,1863.18,299a162.54,162.54,0,0,0,14.22-18.79l.37-.36,35-69.65a115.63,115.63,0,0,0,19.32-.19q11-.9,20.43-2.37l-72.94,145.51c-11.34,20.94-21,37-41.94,49.42ZM654.26,278.9q-9.48,17.14-12.4,31,18.6-1.81,35.92-14.95t30.45-36.1q8.76-15,8.39-24.25t-5.47-10.4q-8-2.55-23.71,10.58T654.26,278.9ZM793.2,342.36q10.95-.36,25.89-17T849,279.27L873.43,230a26.82,26.82,0,0,0-16.23-1.64,52.19,52.19,0,0,0-18.41,7.65,101.78,101.78,0,0,0-19,16A147.59,147.59,0,0,0,802,275.62a159.09,159.09,0,0,0-14.05,27.54q-4.54,12.21-5.1,21T785,337.62a8.87,8.87,0,0,0,8.2,4.74Zm164.84,0q13.13,0,26.62-17.69t29.54-49.05l23-45.22A25.48,25.48,0,0,0,1020.4,228a50.69,50.69,0,0,0-18.6,7.84A94.11,94.11,0,0,0,983,252.65a192.36,192.36,0,0,0-18,24.43q-9.48,15.32-13.86,27.35t-4.92,20.43q-.56,8.38,2.55,12.94c2.07,3,5.16,4.56,9.3,4.56Zm321.28-63.46q-9.48,17.14-12.4,31,18.6-1.81,35.93-14.95t30.45-36.1q8.75-15,8.39-24.25t-5.48-10.4q-8-2.55-23.7,10.58t-33.19,44.12Z"/></svg>